<?xml version="1.0" encoding="UTF-8"?>
<svg xmlns="http://www.w3.org/2000/svg" id="Layer_1" data-name="Layer 1" viewBox="0 0 24 24">
  <path d="M22.4,11.447c-.062-.156-1.595-3.865-7.209-6.582-.742-.36-1.642-.049-2.004,.697-.36,.746-.049,1.643,.697,2.003,1.969,.953,3.311,2.027,4.199,2.937H8.276c-.828,0-1.5,.671-1.5,1.5s.672,1.5,1.5,1.5h9.823c-.883,.904-2.226,1.974-4.214,2.937-.746,.361-1.058,1.258-.697,2.003,.26,.535,.795,.847,1.352,.847,.22,0,.442-.048,.652-.15,5.438-2.632,7.035-6.163,7.199-6.557,.151-.362,.154-.771,.01-1.135Z"/>
  <path d="M8.656,20.013c-1.394-.185-2.567-.419-3.306-.584-.312-1.321-.857-4.112-.857-7.427s.547-6.111,.858-7.43c.733-.165,1.902-.401,3.304-.585,.821-.108,1.399-.861,1.292-1.683-.108-.821-.863-1.397-1.683-1.292-2.616,.344-4.461,.847-4.539,.868-.497,.137-.89,.52-1.038,1.015-.049,.162-1.194,4.033-1.194,9.107s1.146,8.945,1.194,9.107c.149,.497,.545,.881,1.046,1.017,.078,.021,1.937,.518,4.53,.861,.066,.009,.133,.013,.198,.013,.741,0,1.386-.549,1.485-1.303,.108-.821-.47-1.575-1.291-1.684Z"/>
</svg>
